# xmcd CD database file
#
# Track frame offsets:
#	183
#	20805
#	38580
#	54145
#	70083
#	88933
#	110445
#	137435
#	153620
#	159250
#	172583
#	206668
#	225713
#	241600
#	264975
#	280208
#
# Disc length: 4168 seconds
#
# Revision: 0
# Processed by: cddbd v1.5.2PL0 Copyright (c) Steve Scherf et al.
# Submitted via: CDex 1.70beta2
#
DISCID=c5104610
DTITLE=George Shearing - The Shearing Touch - Disc 3
DYEAR=1900
DGENRE=Jazz
TTITLE0=Confirmation
TTITLE1=The Nearness of You
TTITLE2=Mambo Inn
TTITLE3=Bernie's Tune
TTITLE4=Some Other Spring
TTITLE5=Joyspring
TTITLE6=Drume Negrita
TTITLE7=September In The Rain
TTITLE8=On The Street Where You Live
TTITLE9=Roses of Picardy
TTITLE10=Little Niles
TTITLE11=Caravan
TTITLE12=I'll Rememeber April
TTITLE13=Little White Lies
TTITLE14=East of the Sun
TTITLE15=Nothing But the Best
EXTD=
EXTT0=
EXTT1=
EXTT2=
EXTT3=
EXTT4=
EXTT5=
EXTT6=
EXTT7=
EXTT8=
EXTT9=
EXTT10=
EXTT11=
EXTT12=
EXTT13=
EXTT14=
EXTT15=
PLAYORDER=
